<svg width="24" height="24" viewBox="0 0 24 24" fill="none" xmlns="http://www.w3.org/2000/svg">
<path d="M10.01 19.19C10.55 19.28 11.1 19.32 11.66 19.32C17 19.32 21.32 15.44 21.32 10.66C21.32 5.88 17 2 11.66 2C6.32 2 2 5.87 2 10.66C2 13.2 3.21 15.47 5.15 17.06L5.73 22L10.03 19.21H10.02L10.01 19.19Z" stroke="#3B3B3D" stroke-width="1.5" stroke-linejoin="round"/>
<path d="M7.28998 11.98C7.97998 11.98 8.53998 11.42 8.53998 10.73C8.53998 10.04 7.97998 9.47998 7.28998 9.47998C6.59998 9.47998 6.03998 10.04 6.03998 10.73C6.03998 11.42 6.59998 11.98 7.28998 11.98Z" stroke="#3B3B3D" stroke-linejoin="round"/>
<path d="M12.29 11.98C12.98 11.98 13.54 11.42 13.54 10.73C13.54 10.04 12.98 9.47998 12.29 9.47998C11.6 9.47998 11.04 10.04 11.04 10.73C11.04 11.42 11.6 11.98 12.29 11.98Z" stroke="#3B3B3D" stroke-linejoin="round"/>
<path d="M17.29 11.98C17.98 11.98 18.54 11.42 18.54 10.73C18.54 10.04 17.98 9.47998 17.29 9.47998C16.6 9.47998 16.04 10.04 16.04 10.73C16.04 11.42 16.6 11.98 17.29 11.98Z" stroke="#3B3B3D" stroke-linejoin="round"/>
</svg>
