<svg width="24" height="24" viewBox="0 0 24 24" fill="none" xmlns="http://www.w3.org/2000/svg">
<path d="M19.5 10.75C19.5 13.18 18.52 15.35 16.94 16.94C15.35 18.53 13.18 19.5 10.75 19.5C5.91 19.5 2 15.59 2 10.75C2 5.91 5.91 2 10.75 2C15.59 2 19.5 5.91 19.5 10.75Z" stroke="#3B3B3D" stroke-width="1.5" stroke-miterlimit="10"/>
<path d="M18.15 17.1L21.24 19.01C21.99 19.47 22.23 20.47 21.75 21.22C21.27 21.97 20.29 22.21 19.54 21.73C19.33 21.59 19.15 21.42 19.03 21.22L17.12 18.13C16.89 17.78 17.01 17.3 17.36 17.09C17.61 16.94 17.92 16.94 18.16 17.09L18.15 17.1Z" fill="#3B3B3D"/>
</svg>
